<svg xmlns="http://www.w3.org/2000/svg" width="711" height="351" viewBox="0 0 711 351">
<g>
<path d="M 533.50 318.02 C522.02,316.67 508.32,311.15 499.93,304.50 C496.00,301.39 495.82,300.49 497.98,294.81 C499.97,289.57 500.67,282.00 499.29,280.62 C498.17,279.51 495.00,270.70 495.00,268.72 C495.00,265.73 492.18,265.61 485.18,268.32 C481.51,269.74 474.90,271.57 470.50,272.38 C466.10,273.20 461.77,274.15 460.88,274.49 C459.30,275.10 457.63,280.32 454.31,295.00 C451.88,305.74 451.57,306.44 448.48,307.94 C440.89,311.62 432.67,313.00 418.52,312.98 C409.76,312.98 402.81,312.47 400.00,311.63 C395.98,310.43 395.47,309.94 395.18,307.02 C394.57,300.84 399.90,287.78 405.55,281.64 C409.88,276.93 411.21,277.57 407.81,282.73 C403.75,288.91 401.85,295.07 402.19,300.98 C402.48,305.99 402.71,306.43 405.50,307.27 C410.82,308.88 433.04,308.46 437.10,306.67 C444.51,303.43 450.55,293.59 451.66,282.98 C452.34,276.45 451.54,275.42 446.12,275.88 C440.72,276.35 415.00,273.82 415.00,272.83 C415.00,272.33 417.14,272.21 419.75,272.55 C422.36,272.89 432.09,272.69 441.38,272.11 C460.59,270.89 471.40,268.17 481.00,262.13 C487.53,258.03 487.96,257.47 487.98,253.27 C488.00,249.20 483.07,237.00 481.40,237.00 C480.71,237.00 478.88,238.05 477.33,239.34 C469.80,245.58 450.01,249.30 429.99,248.24 L 420.48 247.74 L 419.02 250.62 C417.54,253.52 413.39,259.36 414.12,257.50 C414.34,256.95 415.95,253.74 417.71,250.37 L 420.90 244.25 L 427.20 244.58 C444.01,245.48 470.19,239.71 479.78,232.99 C482.13,231.35 484.45,230.00 484.93,230.00 C485.70,230.00 487.92,235.83 493.70,253.00 C494.53,255.48 495.80,258.85 496.52,260.50 C497.23,262.15 498.72,266.20 499.82,269.50 C500.91,272.80 502.98,278.55 504.41,282.27 C507.37,290.02 507.60,292.00 505.54,292.00 C503.71,292.00 502.00,295.07 502.00,298.36 C502.00,301.49 508.72,305.55 521.21,309.96 C529.22,312.78 530.80,313.00 543.17,312.95 C553.38,312.90 557.55,312.48 561.00,311.14 L 565.50 309.39 L 565.25 304.45 C564.85,296.56 560.93,287.74 555.41,282.27 C551.48,278.39 543.16,275.04 537.00,274.88 C534.53,274.82 531.15,274.44 529.50,274.04 C524.24,272.77 529.14,271.77 538.73,272.15 C548.61,272.56 554.63,274.87 561.16,280.76 C567.41,286.41 573.73,302.02 572.82,309.55 C572.54,311.90 571.64,312.47 565.00,314.58 C557.93,316.82 544.88,319.17 541.18,318.86 C540.25,318.79 536.80,318.41 533.50,318.02 ZM 238.39 289.02 C236.13,288.11 234.63,285.40 235.56,283.91 C235.87,283.41 237.10,283.01 238.31,283.03 C240.28,283.06 240.32,283.16 238.75,284.08 C235.89,285.75 236.75,287.00 240.75,286.98 C246.89,286.96 256.00,283.09 256.00,280.51 C256.00,278.79 250.13,277.52 246.00,278.35 C242.42,279.07 241.19,277.53 243.96,275.79 C246.56,274.17 246.53,273.25 243.80,271.04 C241.78,269.40 241.70,268.94 242.81,265.25 C244.20,260.59 246.28,258.51 248.64,259.41 C250.14,259.99 250.10,260.27 248.28,262.28 C246.05,264.73 244.43,270.00 245.90,270.00 C246.41,270.00 247.51,270.26 248.33,270.57 C249.25,270.93 250.01,270.45 250.30,269.32 C250.70,267.76 250.78,267.74 250.88,269.19 C250.95,270.12 250.55,271.16 250.00,271.50 C248.00,272.74 249.08,274.66 252.53,276.01 C259.30,278.67 257.90,284.26 249.50,288.12 C245.19,290.10 241.74,290.38 238.39,289.02 ZM 216.00 276.65 C216.00,276.38 217.38,274.77 219.07,273.08 C221.18,270.97 221.95,269.42 221.54,268.11 C221.20,267.07 221.52,265.60 222.23,264.86 C226.51,260.38 228.48,254.00 225.58,254.00 C224.79,254.00 222.75,255.18 221.03,256.62 C217.71,259.42 216.53,259.39 217.62,256.54 C218.34,254.68 231.88,247.81 233.21,248.63 C233.64,248.90 234.01,252.80 234.02,257.31 C234.04,261.81 234.46,267.29 234.97,269.47 C235.48,271.66 235.65,273.68 235.36,273.97 C234.12,275.20 231.00,269.54 231.00,266.06 C231.00,264.01 230.73,262.06 230.40,261.74 C229.48,260.81 227.00,262.06 227.00,263.45 C227.00,264.68 225.51,267.75 222.12,273.50 C221.15,275.15 219.37,276.64 218.17,276.82 C216.98,277.00 216.00,276.92 216.00,276.65 ZM 329.56 273.40 C329.05,271.33 328.46,270.91 326.76,271.35 C323.54,272.20 322.00,270.26 322.00,265.38 C322.00,260.51 323.63,259.48 324.56,263.75 C325.56,268.27 325.89,269.00 326.97,269.00 C327.54,269.00 328.00,267.24 328.00,265.08 C328.00,262.93 328.27,260.45 328.61,259.58 C329.09,258.32 328.49,258.00 325.69,258.00 C323.75,258.00 321.96,257.44 321.70,256.75 C321.40,255.96 320.95,256.23 320.45,257.50 C317.28,265.63 314.85,270.05 312.84,271.35 C305.23,276.27 301.47,273.45 301.56,262.89 C301.62,255.32 302.62,253.25 305.28,255.25 C306.71,256.32 306.82,257.39 306.04,262.83 C304.41,274.15 307.60,275.22 312.75,265.09 C316.16,258.38 317.05,251.45 314.80,249.20 C313.87,248.27 313.96,248.00 315.23,248.00 C317.46,248.00 320.00,250.73 320.00,253.13 C320.00,254.84 320.57,255.07 324.12,254.81 C327.86,254.53 328.36,254.17 329.37,251.00 C330.16,248.57 331.19,247.40 332.75,247.18 C335.03,246.86 335.84,248.36 334.00,249.50 C333.45,249.84 333.00,250.99 333.00,252.06 C333.00,253.55 333.70,254.00 336.00,254.00 C337.65,254.00 339.00,254.45 339.00,255.00 C339.00,255.55 337.43,256.00 335.52,256.00 C331.20,256.00 330.54,257.94 331.22,268.57 C331.69,275.92 330.83,278.44 329.56,273.40 ZM 237.90 271.82 C237.11,270.34 236.94,266.89 237.38,261.20 C238.06,252.31 238.54,250.60 240.08,251.55 C241.20,252.24 240.98,274.00 239.85,274.00 C239.42,274.00 238.54,273.02 237.90,271.82 ZM 255.25 272.28 C254.44,271.99 254.00,269.73 254.00,265.84 C254.00,260.68 254.24,259.90 255.75,260.19 C257.20,260.47 257.47,261.52 257.33,266.35 C257.14,272.73 257.07,272.93 255.25,272.28 ZM 380.08 272.07 C379.08,271.44 378.61,268.96 378.51,263.83 C378.37,256.66 378.31,256.49 375.68,256.18 C372.01,255.75 372.28,254.00 376.02,254.00 C378.33,254.00 379.28,253.41 380.00,251.50 C380.52,250.12 381.41,249.00 381.98,249.00 C382.54,249.00 383.00,250.12 383.00,251.50 C383.00,253.48 383.50,254.00 385.44,254.00 C389.18,254.00 389.47,255.83 385.79,256.19 C382.80,256.48 382.48,256.85 381.75,261.00 C381.32,263.48 381.24,267.19 381.57,269.25 C382.23,273.32 382.18,273.40 380.08,272.07 ZM 259.39 270.58 C258.41,268.02 259.43,263.50 261.00,263.50 C262.05,263.50 262.59,264.78 262.81,267.75 C263.05,271.10 262.78,272.00 261.53,272.00 C260.65,272.00 259.69,271.36 259.39,270.58 ZM 265.67 271.33 C265.30,270.97 265.00,268.49 265.00,265.83 C265.00,262.20 265.37,261.00 266.50,261.00 C267.33,261.00 268.03,261.56 268.07,262.25 C268.11,262.94 268.31,265.41 268.52,267.75 C268.79,270.75 268.53,272.00 267.62,272.00 C266.91,272.00 266.03,271.70 265.67,271.33 ZM 272.75 270.92 C269.07,268.78 271.68,259.00 275.93,259.00 C278.29,259.00 280.39,261.54 279.64,263.49 C278.89,265.44 277.00,265.45 277.00,263.50 C277.00,262.67 276.60,262.00 276.10,262.00 C274.86,262.00 274.95,269.21 276.22,270.75 C277.50,272.31 275.32,272.42 272.75,270.92 ZM 281.67 271.33 C280.74,270.41 280.83,264.23 281.77,263.64 C282.20,263.38 283.46,264.20 284.59,265.46 C286.05,267.11 286.41,268.36 285.85,269.88 C285.08,271.95 283.00,272.67 281.67,271.33 ZM 288.55 270.75 C287.05,265.95 287.06,262.08 288.58,260.56 C291.27,257.88 292.89,260.17 291.91,265.26 C291.46,267.59 291.07,270.06 291.04,270.75 C291.02,271.44 290.54,272.00 289.97,272.00 C289.40,272.00 288.76,271.44 288.55,270.75 ZM 342.02 271.18 C336.15,270.76 335.00,269.65 335.00,264.36 C335.00,260.62 335.38,259.78 337.54,258.80 C339.62,257.85 340.37,257.94 341.74,259.32 C343.08,260.65 343.16,261.24 342.17,262.23 C341.17,263.23 340.73,263.18 339.97,261.99 C339.30,260.92 339.03,261.71 339.02,264.78 C339.00,267.76 339.48,269.25 340.57,269.66 C342.93,270.57 344.19,268.66 344.35,263.93 C344.49,259.91 347.00,256.75 347.00,260.59 C347.00,262.15 347.26,262.10 349.31,260.17 C351.92,257.72 353.62,257.41 354.29,259.25 C354.65,260.25 355.16,260.25 356.86,259.25 C359.99,257.40 361.96,257.72 362.91,260.25 C364.02,263.16 363.05,264.79 361.49,262.65 C359.97,260.58 359.00,260.54 359.00,262.56 C359.00,263.42 359.45,263.84 360.00,263.50 C360.55,263.16 361.00,263.32 361.00,263.86 C361.00,264.39 360.49,265.00 359.87,265.21 C358.24,265.75 359.74,269.77 361.80,270.36 C362.73,270.63 361.92,270.77 360.00,270.68 C356.99,270.52 356.37,270.05 355.56,267.32 C354.70,264.38 352.75,263.05 349.25,263.01 C348.51,263.01 347.99,264.32 347.98,266.25 C347.96,270.83 347.11,271.54 342.02,271.18 ZM 365.89 270.46 C364.02,268.60 364.59,262.00 366.61,262.00 C367.37,262.00 368.00,262.45 368.00,263.00 C368.00,264.91 369.51,263.97 371.20,260.99 C372.14,259.35 373.63,258.00 374.52,258.00 C375.87,258.00 376.08,259.07 375.81,264.67 C375.45,272.32 373.76,273.97 371.53,268.84 C370.41,266.26 370.07,265.98 370.04,267.63 C369.98,270.77 367.73,272.30 365.89,270.46 ZM 385.66 268.92 C382.66,264.64 387.04,255.12 390.63,258.11 C392.72,259.84 392.33,263.76 390.00,264.50 C387.43,265.32 387.47,266.43 390.19,268.96 L 392.38 271.00 L 389.75 271.00 C388.21,271.00 386.50,270.13 385.66,268.92 ZM 390.00 262.00 C390.00,261.45 389.80,261.00 389.56,261.00 C389.32,261.00 388.84,261.45 388.50,262.00 C388.16,262.55 388.36,263.00 388.94,263.00 C389.52,263.00 390.00,262.55 390.00,262.00 ZM 265.38 257.54 C265.03,256.65 264.97,255.70 265.23,255.43 C266.08,254.59 269.10,256.21 268.73,257.31 C268.13,259.11 266.04,259.26 265.38,257.54 ZM 298.03 253.75 C298.08,251.71 300.34,249.34 303.00,248.53 C305.34,247.82 305.28,248.00 302.05,251.38 C298.23,255.40 297.99,255.54 298.03,253.75 ZM 142.00 253.38 C140.62,253.13 134.43,251.98 128.24,250.85 C122.05,249.71 116.78,248.45 116.53,248.05 C115.66,246.65 132.91,244.30 161.00,242.00 C197.70,239.00 210.97,238.08 225.50,237.55 C257.51,236.37 264.00,235.87 264.00,234.56 C264.00,233.88 261.08,229.53 257.50,224.91 C253.93,220.28 248.64,213.43 245.75,209.67 C237.84,199.38 235.23,196.44 234.57,197.10 C234.24,197.42 234.34,201.81 234.78,206.84 C235.22,211.88 235.20,216.67 234.74,217.50 C234.12,218.61 232.11,219.00 227.06,219.00 C221.47,219.00 220.09,218.68 219.53,217.25 C219.16,216.29 218.20,207.62 217.41,198.00 C215.84,178.88 214.48,166.54 212.97,157.94 C211.81,151.27 211.69,142.00 212.78,142.00 C213.21,142.00 214.22,142.94 215.03,144.10 C218.04,148.39 227.35,160.52 228.01,161.00 C228.39,161.27 230.45,163.79 232.60,166.58 C249.41,188.49 251.95,191.46 252.04,189.37 C252.06,188.89 252.17,182.43 252.29,175.00 L 252.50 161.50 L 260.16 161.21 L 267.82 160.92 L 268.42 163.71 C268.75,165.24 269.48,179.55 270.04,195.50 C270.60,211.45 271.34,226.93 271.67,229.90 L 272.28 235.30 L 298.89 234.64 C319.11,234.14 390.02,233.66 399.87,233.96 C400.91,233.99 400.97,234.33 400.12,235.35 C399.50,236.10 394.95,237.49 390.00,238.45 C382.06,239.98 379.01,240.06 364.10,239.09 C354.80,238.49 330.49,238.00 310.07,238.00 C279.31,238.00 272.85,238.24 272.40,239.39 C271.98,240.49 271.27,240.55 269.02,239.70 C266.95,238.92 262.89,238.96 254.33,239.83 C247.82,240.49 235.07,241.68 226.00,242.47 C208.74,243.97 178.77,248.68 168.50,251.51 C162.52,253.16 146.75,254.27 142.00,253.38 ZM 307.76 247.29 C309.01,247.05 310.81,247.06 311.76,247.31 C312.72,247.56 311.70,247.76 309.50,247.75 C307.30,247.74 306.52,247.53 307.76,247.29 ZM 431.24 241.50 C431.53,240.40 432.07,238.79 432.43,237.91 C432.90,236.79 431.92,235.55 429.07,233.67 C426.86,232.20 424.38,229.70 423.56,228.11 C421.50,224.13 420.66,218.00 421.78,215.04 C422.65,212.72 422.91,212.99 426.10,219.42 C431.51,230.31 435.81,231.68 438.74,223.44 C441.50,215.66 444.12,199.85 442.90,198.37 C441.52,196.72 436.02,196.58 432.64,198.12 C428.30,200.09 423.00,194.27 423.00,187.53 C423.00,185.21 427.70,181.58 434.00,179.03 C435.92,178.25 439.47,176.58 441.87,175.32 C444.27,174.06 446.70,173.31 447.26,173.66 C447.92,174.07 448.09,179.11 447.73,187.90 C446.97,206.53 443.14,220.92 434.66,237.00 C431.39,243.19 430.46,244.43 431.24,241.50 ZM 432.50 193.53 C434.70,192.74 437.85,192.06 439.50,192.03 C444.40,191.93 444.97,191.07 444.30,184.63 C443.72,179.00 443.62,178.83 441.08,179.33 C436.22,180.31 426.52,186.43 426.19,188.74 C425.93,190.50 427.46,195.04 428.29,194.98 C428.40,194.98 430.30,194.32 432.50,193.53 ZM 523.65 232.75 C525.67,229.86 528.77,225.70 530.55,223.50 C537.42,214.97 546.15,198.17 550.82,184.50 C554.24,174.52 554.97,162.35 553.68,137.10 C552.91,122.10 552.19,119.50 547.27,113.95 C546.03,112.55 544.14,108.10 543.09,104.08 C541.44,97.80 540.50,96.12 536.53,92.38 C533.98,89.97 531.53,88.00 531.08,88.00 C530.63,88.00 530.04,86.03 529.77,83.63 C529.45,80.84 527.90,77.18 525.50,73.57 C517.67,61.76 504.89,58.45 487.09,63.62 C485.50,64.08 484.91,63.96 485.35,63.25 C485.90,62.35 488.57,61.39 498.75,58.43 C501.14,57.73 499.97,56.34 495.25,54.29 C486.97,50.69 483.89,50.00 476.00,50.00 C468.14,50.00 464.76,50.74 457.25,54.11 C452.65,56.17 452.16,57.60 453.94,63.80 C455.25,68.37 458.66,70.93 463.50,70.97 C479.65,71.11 505.86,80.93 514.74,90.17 C524.87,100.73 529.50,110.21 534.05,129.74 C536.13,138.63 536.73,149.68 535.00,147.00 C534.47,146.18 534.02,144.09 534.02,142.36 C534.01,140.63 532.70,134.10 531.11,127.86 C524.59,102.28 515.45,90.88 495.27,83.14 C485.78,79.51 471.42,77.61 461.08,78.62 C453.23,79.39 451.47,80.19 449.62,83.78 C447.62,87.68 445.01,104.05 444.97,112.93 C444.95,118.88 444.71,120.10 443.85,118.62 C443.13,117.39 442.93,111.75 443.26,102.12 C443.83,85.34 445.34,79.73 450.68,74.38 C453.33,71.74 453.96,70.44 453.44,68.72 C452.23,64.73 448.28,60.43 444.10,58.54 C441.84,57.53 440.00,56.33 440.00,55.87 C440.00,54.91 446.04,52.07 456.21,48.25 C462.60,45.86 464.93,45.52 475.00,45.51 C484.63,45.50 487.41,45.87 492.06,47.75 C495.12,48.99 498.52,50.79 499.60,51.75 C503.36,55.08 507.93,58.00 509.38,58.00 C512.65,58.00 520.76,62.38 524.79,66.31 C528.27,69.70 529.58,72.06 531.64,78.67 C533.61,84.99 534.88,87.37 537.26,89.17 C538.95,90.45 540.72,91.95 541.19,92.50 C545.09,97.09 546.11,98.75 546.99,101.89 C547.54,103.88 547.99,106.89 547.99,108.60 C548.00,110.47 548.83,112.44 550.11,113.60 C553.50,116.66 555.88,122.32 556.98,129.91 C557.54,133.81 558.45,140.12 559.00,143.94 C562.67,169.45 557.22,190.58 540.58,215.34 C535.74,222.55 522.08,238.00 520.55,238.00 C520.24,238.00 521.64,235.64 523.65,232.75 ZM 91.18 229.16 C89.50,228.06 88.45,223.38 85.43,203.50 C84.09,194.70 82.12,182.32 81.04,176.00 C79.97,169.68 77.91,157.30 76.48,148.50 C72.42,123.49 73.13,125.58 68.50,125.00 L 64.50 124.50 L 64.20 117.59 C63.99,112.74 64.29,110.43 65.20,109.85 C68.41,107.82 99.15,109.72 115.72,112.99 C142.70,118.30 157.47,129.28 155.63,142.68 C154.72,149.33 149.44,158.39 143.08,164.23 C132.11,174.29 112.29,188.00 108.71,188.00 C106.94,188.00 100.06,177.19 100.70,175.41 C100.91,174.82 102.60,173.61 104.45,172.73 C108.42,170.83 126.78,157.00 131.96,152.00 C140.70,143.56 141.24,139.74 134.25,135.87 C131.64,134.42 127.00,132.52 123.95,131.65 C115.51,129.24 91.91,125.69 90.91,126.69 C89.99,127.61 91.84,143.49 94.55,158.00 C95.43,162.68 96.77,171.23 97.54,177.00 C98.31,182.77 99.38,189.52 99.91,192.00 C100.44,194.48 101.87,203.41 103.09,211.85 C105.52,228.74 105.48,228.94 99.50,229.00 C97.85,229.01 95.60,229.25 94.50,229.53 C93.40,229.80 91.90,229.64 91.18,229.16 ZM 275.27 225.07 C275.59,223.85 281.55,212.28 288.51,199.37 C295.51,186.42 300.93,175.25 300.62,174.44 C300.16,173.24 298.33,173.10 290.18,173.63 C280.37,174.28 280.30,174.26 279.67,171.89 C278.73,168.39 278.86,159.20 279.86,158.59 C280.33,158.30 291.38,157.31 304.42,156.39 C321.29,155.20 328.43,155.03 329.20,155.80 C329.96,156.56 329.45,158.26 327.44,161.68 C324.21,167.20 314.87,184.52 308.40,197.00 C305.78,202.04 304.44,205.65 305.09,205.86 C305.70,206.07 311.36,205.45 317.68,204.49 C324.11,203.52 329.49,203.14 329.91,203.63 C331.03,204.93 333.00,212.36 333.00,215.31 C333.00,218.55 332.61,218.77 324.87,219.92 C321.36,220.44 310.62,222.06 301.00,223.52 C273.01,227.77 274.59,227.67 275.27,225.07 ZM 499.05 224.83 C494.98,223.66 490.05,219.78 488.15,216.25 C486.13,212.49 486.43,202.67 488.68,198.81 C490.87,195.06 499.06,190.42 501.69,191.44 C503.13,191.99 502.69,192.59 499.24,194.80 C496.84,196.34 494.60,198.74 494.02,200.40 C492.46,204.83 492.81,212.11 494.75,215.95 C497.92,222.19 508.30,225.74 515.43,223.02 C517.13,222.38 518.00,222.39 518.00,223.05 C518.00,225.77 506.20,226.88 499.05,224.83 ZM 185.50 222.00 C163.98,220.90 154.14,217.50 149.48,209.55 C146.45,204.38 146.33,199.63 149.11,195.00 C153.52,187.65 158.98,183.49 174.72,175.47 C182.76,171.37 183.82,170.53 182.97,168.95 C180.96,165.19 174.34,165.29 166.86,169.19 L 162.90 171.25 L 160.58 169.07 C159.30,167.87 157.44,165.09 156.45,162.90 C154.70,159.01 154.71,158.85 156.58,157.12 C160.54,153.44 170.59,149.93 177.33,149.88 C188.50,149.79 195.92,155.41 200.63,167.50 C203.09,173.81 203.40,176.05 203.78,190.25 L 204.21 206.00 L 207.30 206.80 C210.12,207.53 210.53,208.18 212.01,214.28 C213.12,218.82 213.32,221.28 212.62,221.98 C211.54,223.06 206.50,223.06 185.50,222.00 ZM 186.79 197.59 C186.96,193.25 186.70,189.30 186.22,188.82 C184.99,187.59 170.11,195.23 166.59,198.91 L 163.69 201.93 L 166.58 203.03 C170.20,204.41 179.52,205.85 183.50,205.65 L 186.50 205.50 L 186.79 197.59 ZM 367.87 217.01 C359.86,214.96 353.13,211.11 347.32,205.24 C340.34,198.19 338.84,194.24 338.84,182.79 C338.84,176.30 339.31,173.90 341.39,169.67 C345.43,161.45 352.16,154.54 359.77,150.79 C366.30,147.58 366.78,147.50 379.48,147.50 C394.31,147.50 397.57,148.53 402.25,154.70 C411.45,166.82 396.78,184.61 373.64,189.38 C369.32,190.27 363.81,191.00 361.39,191.00 C356.44,191.00 356.01,191.74 359.25,194.71 C364.54,199.54 367.84,200.42 382.96,200.97 C399.37,201.57 398.69,201.14 398.90,211.13 C398.99,215.12 398.69,215.86 396.75,216.42 C392.88,217.55 371.68,217.98 367.87,217.01 ZM 373.86 172.55 C379.75,170.98 387.28,166.31 386.69,164.59 C386.45,163.92 383.28,163.52 378.41,163.56 C372.43,163.61 369.52,164.13 366.50,165.70 C361.74,168.18 358.55,171.46 359.46,172.94 C360.38,174.43 367.51,174.24 373.86,172.55 ZM 416.86 198.25 C413.08,188.70 412.82,181.47 416.08,176.19 C418.19,172.77 430.42,167.20 437.50,166.45 C442.90,165.87 443.30,165.95 441.50,167.26 C440.40,168.05 436.35,169.95 432.50,171.47 C419.70,176.53 413.98,181.16 415.53,185.24 C416.35,187.39 418.79,201.00 418.36,201.00 C418.13,201.00 417.46,199.76 416.86,198.25 ZM 520.95 187.25 C522.29,184.95 527.29,179.21 526.83,180.50 C525.94,182.97 521.71,189.00 520.87,189.00 C520.32,189.00 520.35,188.28 520.95,187.25 ZM 532.51 165.98 C532.86,165.42 533.56,165.23 534.07,165.54 C535.46,166.40 535.20,167.00 533.44,167.00 C532.58,167.00 532.16,166.54 532.51,165.98 ZM 510.52 165.03 C509.67,163.65 512.18,162.69 525.00,159.46 C527.52,158.83 531.17,157.43 534.09,155.98 C536.51,154.77 550.84,152.78 551.99,153.49 C553.76,154.59 553.08,158.42 550.41,162.35 C548.99,164.44 547.66,165.99 547.45,165.78 C546.78,165.11 548.21,161.00 549.12,161.00 C550.70,161.00 550.04,156.23 548.37,155.59 C546.87,155.01 542.42,156.05 537.50,158.12 C536.40,158.58 531.11,160.11 525.73,161.51 C520.36,162.91 514.87,164.48 513.52,164.99 C512.09,165.54 510.84,165.55 510.52,165.03 ZM 444.25 159.84 C443.01,159.21 442.00,158.43 442.00,158.10 C442.00,157.77 440.83,156.15 439.39,154.50 C437.96,152.85 436.39,150.46 435.90,149.18 C434.12,144.59 434.79,143.38 440.59,140.76 L 446.18 138.23 L 443.34 137.19 C440.98,136.33 440.86,136.14 442.63,136.08 C443.80,136.04 446.40,135.31 448.40,134.48 C451.85,133.03 452.09,133.06 452.78,134.94 C453.48,136.83 454.71,136.95 477.51,137.41 C494.29,137.75 505.26,138.48 514.00,139.85 C528.95,142.19 532.00,143.23 532.00,145.98 C532.00,148.44 531.23,148.52 528.79,146.31 C527.03,144.71 526.15,144.72 514.21,146.38 C507.22,147.36 500.83,148.35 500.00,148.58 C499.17,148.81 497.62,150.84 496.55,153.09 C493.60,159.25 490.79,161.00 483.82,161.00 C476.37,161.00 472.95,159.24 468.87,153.31 C465.94,149.06 465.54,148.80 464.57,150.50 C463.98,151.54 461.90,154.16 459.93,156.32 C456.86,159.72 455.69,160.31 451.43,160.62 C448.72,160.81 445.49,160.46 444.25,159.84 ZM 451.55 153.50 C454.25,151.02 456.73,149.00 457.06,149.00 C457.39,149.00 458.26,147.88 458.99,146.52 C459.72,145.15 461.15,143.77 462.16,143.45 C464.10,142.83 464.76,139.00 462.93,139.00 C461.41,139.00 445.00,155.23 445.00,156.74 C445.00,158.89 446.48,158.16 451.55,153.50 ZM 482.89 148.39 C486.80,144.76 490.00,141.33 490.00,140.78 C490.00,140.21 488.59,139.99 486.75,140.27 C484.96,140.54 482.73,140.36 481.78,139.86 C480.45,139.17 478.91,140.05 474.88,143.83 C471.52,146.99 470.11,148.95 470.86,149.41 C471.53,149.82 473.34,148.82 475.09,147.07 C476.77,145.38 478.42,144.00 478.75,144.00 C479.08,144.00 480.17,143.26 481.17,142.35 C482.18,141.43 482.98,141.10 482.95,141.60 C482.92,142.09 480.45,144.51 477.45,146.96 C471.17,152.09 470.52,154.35 475.14,154.92 C475.50,154.96 478.99,152.03 482.89,148.39 ZM 448.28 148.85 C454.39,143.35 455.27,141.86 451.89,142.74 C449.46,143.37 441.00,151.28 441.00,152.91 C441.00,154.90 442.51,154.05 448.28,148.85 ZM 236.27 150.16 C235.68,149.80 233.35,139.82 231.08,128.00 C228.81,116.18 225.76,101.51 224.31,95.41 C222.86,89.31 221.93,83.62 222.26,82.76 C222.74,81.52 225.49,81.08 236.18,80.53 C243.51,80.16 253.32,79.99 258.00,80.17 L 266.50 80.50 L 266.80 84.69 C267.10,88.75 267.00,88.91 263.80,89.39 C261.99,89.67 254.90,90.14 248.05,90.45 C241.20,90.75 235.26,91.34 234.85,91.75 C234.44,92.16 235.24,97.45 236.62,103.50 C238.01,109.55 239.38,115.74 239.68,117.25 C240.32,120.49 241.95,120.64 254.30,118.62 C258.58,117.91 262.24,117.60 262.41,117.92 C263.29,119.50 263.88,125.63 263.23,126.54 C262.46,127.64 250.00,130.00 244.98,130.00 C241.70,130.00 241.50,130.65 243.04,136.22 L 244.08 139.94 L 253.79 139.25 C271.09,138.02 270.34,137.86 271.38,142.77 C271.88,145.12 271.98,147.35 271.60,147.74 C271.21,148.12 264.28,148.77 256.20,149.17 C248.11,149.58 240.56,150.11 239.41,150.36 C238.27,150.62 236.85,150.52 236.27,150.16 ZM 275.62 135.75 C273.64,100.10 273.19,89.50 273.63,88.79 C274.42,87.52 281.66,87.88 282.75,89.25 C283.30,89.94 284.05,98.60 284.43,108.50 C284.80,118.40 285.38,128.24 285.70,130.36 L 286.29 134.22 L 291.16 133.57 C295.74,132.97 296.08,133.08 297.01,135.53 C297.55,136.96 298.00,139.19 298.00,140.49 C298.00,142.63 297.44,142.92 292.25,143.53 C289.09,143.90 284.70,144.59 282.50,145.08 C280.30,145.56 277.98,145.96 277.35,145.98 C276.58,145.99 276.00,142.52 275.62,135.75 ZM 471.00 125.14 C471.00,123.45 477.23,120.88 482.75,120.28 C487.84,119.74 488.00,119.80 488.00,122.24 C488.00,124.66 487.76,124.75 481.68,124.75 C478.21,124.75 474.38,125.06 473.18,125.44 C471.94,125.84 471.00,125.71 471.00,125.14 Z" fill="rgba(0,0,0,1)"/>
</g>
</svg>